# xmcd
#
# Track frame offsets: 
#        150
#        14497
#        35427
#        51270
#        68415
#        94555
#        113807
#        131122
#        145517
#        164075
#        179282
#        201740
#        223397
#        247182
#        264480
#        287767
#        310742
#
# Disc length: 4495 seconds
#
# Revision: 3
# Processed by: cddbd v1.5.2PL0 Copyright (c) Steve Scherf et al.
# Submitted via: ExactAudioCopy v0.95b4
#
DISCID=09118d11
DTITLE=Jeff Wayne - The War Of The Worlds (Collector's Edition) [CD3 -
DTITLE=The Remixes 1979 - 2005)
DYEAR=2005
DGENRE=Musical
TTITLE0=Ulladubulla (Papa Ootzie Remix)
TTITLE1=The Eve Of The War (Hybrid's Fire In The Sky Mix)
TTITLE2=Forever Autumn (N-Trance Remix)
TTITLE3=Horsell Common And The Heat Ray (Max Mondo Remix)
TTITLE4=The Spirit Of Man (Spirit Of Dub) (Tom Frederikse - Gaëtan Sch
TTITLE4=urrer Remix)
TTITLE5=The Eve Of The War (Hani Remix)
TTITLE6=The Artilleryman And The Fighting Machine (Max Mondo Remix)
TTITLE7=Brave New World (Todd Terry Remix)
TTITLE8=Forever Autumn (Dark Autumn Dub) (Tom Frederikse - Gaëtan Schu
TTITLE8=rrer Remix)
TTITLE9=The Red Weed (Mister Joyboy Remix)
TTITLE10=The Spirit Of Destiny (The Parson vs. Palene) (Cassidy - Lang
TTITLE10=an - Wayne Remix)
TTITLE11=The Eve Of The War (1980 Disco Steve Thompson Remix )
TTITLE12=The Spirit Of Man (Max Mondo Remix)
TTITLE13=The Eve Of The War (Ben Liebrand Remix)
TTITLE14=Brave New World (Dario G Remix)
TTITLE15=Dead London (Mister Joyboy Remix)
TTITLE16=The Eve Of The War vs. Animal And Man (Forrest - Schurrer - W
TTITLE16=ayne Remix)
EXTD=YEAR: 2005
EXTT0=
EXTT1=
EXTT2=
EXTT3=
EXTT4=
EXTT5=
EXTT6=
EXTT7=
EXTT8=
EXTT9=
EXTT10=
EXTT11=
EXTT12=
EXTT13=
EXTT14=
EXTT15=
EXTT16=
PLAYORDER=
